<svg xmlns="http://www.w3.org/2000/svg" viewBox="0 0 128 128" aria-hidden="true">
  <g fill="#8F2E27">
    <path d="M64 4c33 0 60 27 60 60s-27 60-60 60S4 97 4 64 31 4 64 4Zm0 7c-29.2 0-53 23.8-53 53s23.8 53 53 53 53-23.8 53-53S93.2 11 64 11Z"/>
    <path d="M20 34c13-10.8 27.7-16.2 44-16.2S95 23.2 108 34v52.6c-12.8 15.8-27.5 23.7-44 23.7S32.9 102.4 20 86.6z"/>
  </g>
  <g fill="#F8F4EB">
    <path d="M34.5 39.2h59v48.6h-59z"/>
    <path d="M38.5 43.9 64 65.2l25.5-21.3v8.6L64 73.8 38.5 52.5z"/>
    <path d="M40.5 82.1 56.7 67l4.5 3.7L45.9 86.2zm47.1 4.1L66.8 70.7l4.4-3.8 18.6 13.6z"/>
    <path d="M43.5 33.5c7.5-3.8 14.3-5.7 20.5-5.7 6.4 0 13.4 1.9 21.1 5.7zM36.8 96.1c10 3.8 19 5.7 27.2 5.7 8.5 0 17.7-1.9 27.8-5.7-8.6 8.1-17.9 12.2-27.8 12.2-9.7 0-18.8-4.1-27.2-12.2z"/>
    <path d="M48.8 54.4h30.6v4.4H48.8zm0 10.8h13.7v4.4H48.8z"/>
    <path d="M25.5 50.3c4.7 1 8.3 2.8 10.8 5.6-4.2.2-8.4 1.5-12.7 3.8 2.5-3.2 3.1-6.3 1.9-9.4zM102.2 54.5c-4.4 2.1-7.8 4.8-10 8.1 4.4-.6 8.5.1 12.5 2.1-2.2-3.4-3-6.8-2.5-10.2z"/>
    <circle cx="34" cy="27" r="2"/>
    <circle cx="96" cy="32" r="1.8"/>
  </g>
</svg>
