<svg xmlns="http://www.w3.org/2000/svg" viewBox="0 0 128 128" aria-hidden="true">
  <g fill="#8F2E27">
    <path d="M64 4c33 0 60 27 60 60s-27 60-60 60S4 97 4 64 31 4 64 4Zm0 7c-29.2 0-53 23.8-53 53s23.8 53 53 53 53-23.8 53-53S93.2 11 64 11Z"/>
    <path d="M19 65c10.5-6.2 23.4-9.4 38.8-9.4 20.6 0 35.8 4.9 50.5 14.4-4.6 7.6-7.9 17.4-7.9 28.9-10.3 8.6-23 13.1-36.4 13.1-15.1 0-28.8-5.8-39-15.4.5-10.9-1.5-21.5-6-31.6Z"/>
  </g>
  <g fill="#F8F4EB">
    <path d="M26 57.5c13.2-9.4 25.9-13.8 38.4-13.4 12.3.3 24.9 5.3 38.2 14.8-16.8-3.7-30.7-5.4-41.7-5.1-11 .2-22.7 1.5-34.9 3.7Z"/>
    <path d="M29.5 63.4c13.1-3.6 24.5-5.5 34.4-5.5 10.4 0 22 2 34.8 5.9l-3.8 5.2c-10.9-2.7-21.2-4-30.9-4-9.3 0-19.6 1.3-31 3.9l-3.5-5.5Z"/>
    <path d="M37.2 72.1h7v18.2h-7zm47.1 0h7v18.2h-7z"/>
    <path d="M53.8 91.5V77.8c0-6.3 4.3-11.2 10.2-11.2 5.8 0 10 4.9 10 11.2v13.7h-6.6V77.8c0-2.7-1.3-4.7-3.4-4.7-2.2 0-3.6 2-3.6 4.7v13.7z"/>
    <path d="M21.8 74.8c8.9-3.2 17.4-5.5 25.5-6.8-6.4 3.6-14.2 7-23.3 10.1zM106.5 76.9c-7.8-3.3-15.6-5.9-23.4-7.8 5.2 4.1 12.1 8.2 20.5 12.2z"/>
    <path d="M17.8 50.5c4.9 2.7 10.5 3.8 16.8 3.4-4.7-2.2-7.5-5.7-8.4-10.4-2.5 3.4-5.3 5.8-8.4 7zM110.8 47.5c-5.2 4.1-10.6 5.9-16.2 5.5 4.5-3.1 6.9-7.5 7.1-13.2 2.6 3.2 5.6 5.8 9.1 7.7z"/>
    <path d="M31 37.5c-3.2 4.5-4.8 9.7-4.6 15.5l6-1.8c-.9-4.2-.2-8.7 2.1-13.4zm66.1-1.2c2.7 5.3 3.4 10.7 2 16.3l-5.7-2.1c1.4-4.2.7-8.5-1.9-12.8z"/>
    <path d="M42.5 39.5c.3 4.1.9 8 1.8 11.6l4.9-.8c-1.4-3.4-2.1-7.1-2-11.1zm37.4.2c-.4 3.7-1.2 7.2-2.5 10.5l4.9.8c1-3.6 1.6-7.4 1.8-11.3z"/>
    <path d="M56 37.7c.9 3.8 1.3 7.5 1 11.1h5.3c.2-3.4-.2-7.2-1.2-11.2zm11.8 0c-.7 3.5-1 7.2-.8 11.1h5.3c-.3-3.9.2-7.6 1.3-11.1z"/>
    <path d="M25 93.8c13.3 8 25 12 35 12 11 0 24.2-4.2 39.8-12.5-10.5 12.1-22.4 18.1-35.8 18.1-14.7 0-27.7-5.9-39-17.6z"/>
    <circle cx="29" cy="27" r="2.2"/>
    <circle cx="101" cy="28" r="2.4"/>
    <circle cx="91" cy="101" r="1.8"/>
  </g>
</svg>
