<svg xmlns="http://www.w3.org/2000/svg" viewBox="0 0 128 128" aria-hidden="true">
  <g fill="#8F2E27">
    <path d="M64 4c33 0 60 27 60 60s-27 60-60 60S4 97 4 64 31 4 64 4Zm0 7c-29.2 0-53 23.8-53 53s23.8 53 53 53 53-23.8 53-53S93.2 11 64 11Z"/>
    <path d="M17 72c9.8-22 27.3-36.5 52.4-43.5 12-3.4 24-3.3 36 .2-4.1 14.4-4.4 29.5-.8 45.2-10.6 17.9-25.5 27.7-44.7 29.4-18.6 1.7-32.9-8.8-42.9-31.3Z"/>
  </g>
  <g fill="#F8F4EB">
    <path d="M42.7 87.9 86.9 27.2l7.1-4.3-2.4 8.2-44 60.4z"/>
    <path d="M38.4 85.6 53 96.2l-4.1 5.6-14.6-10.6z"/>
    <path d="M29.7 91.8c10.6-2.8 19.2-2.1 25.8 2.3-8.4 2.3-16.8 1.5-25.8-2.3z"/>
    <path d="M44.4 79.9c6.4 4.5 12.8 8.3 19.2 11.4-8.1.8-15.6-1.6-22.5-7.1z"/>
    <path d="M63.6 35.4c-4.9 11.9-7 23.5-6.2 34.8l-4.3 5.9c-2.3-12.9.4-26.5 8.1-40.7z"/>
    <path d="M78.6 30.7c-2.8 12-2.4 24.4 1.2 37.1l-4.3 6c-4.6-14.6-4.4-28.9.8-43z"/>
    <path d="M21 65.8c8-2.6 15.1-6.6 21.3-12.2-2.2 8.6-7.8 15.4-16.8 20.3zM95.5 74.7c4.2 5.3 8.2 12.6 12 22-8.1-5.2-13.9-11.3-17.4-18.2z"/>
    <path d="M33.1 42.8c5.5 0 10.6 1.2 15.4 3.6-6.1 1.2-11.7 4.2-16.8 9 .9-4.8 1.4-9 1.4-12.6zM91 43.1c3.3-3.8 6.9-6.3 10.9-7.5-1.2 6.4-.9 12.2.9 17.3-3.4-4.5-7.3-7.8-11.8-9.8z"/>
    <circle cx="31" cy="28" r="2"/>
    <circle cx="101" cy="26" r="2.3"/>
    <circle cx="88" cy="101" r="1.8"/>
  </g>
</svg>
