<svg xmlns="http://www.w3.org/2000/svg" viewBox="0 0 128 128" aria-hidden="true">
  <g fill="#8F2E27">
    <path d="M64 4c33 0 60 27 60 60s-27 60-60 60S4 97 4 64 31 4 64 4Zm0 7c-29.2 0-53 23.8-53 53s23.8 53 53 53 53-23.8 53-53S93.2 11 64 11Z"/>
    <path d="M24 80c2-20.2 11-36.3 27-48.2 14.7-11 30.7-13.5 48-7.4-4.8 7.7-5.6 15.8-2.3 24.5 4.1 10.7 2.3 21.4-5.5 32.2C75.5 99.5 53.1 99.2 24 80Z"/>
  </g>
  <g fill="#F8F4EB">
    <path d="M38.2 76.5c8.1 5.1 17.4 7.2 28 6.3 9.5-.8 16.6-4 21.5-9.7-1.2 9.9-6.4 17.4-15.7 22.4-10.7 5.8-22.8 3.6-36.3-6.6z"/>
    <path d="M43 72.5c3.8-5.8 5.8-12 5.9-18.6 4.4 3.1 9.3 4.9 14.6 5.4 1.9-7.1 5.8-12 11.6-14.8 4.9-2.4 10.8-2.8 17.8-1.1-6.5 3.5-10.8 7.7-13 12.5-2.6 5.9-2.4 12.1.6 18.6-7.2 4.6-15.9 6.5-26.1 5.7-4.5-.3-8.3-2.9-11.4-7.7z"/>
    <path d="M47.7 46.8c-7.1 3.3-12.8 8.6-17 15.8 2.1-11.7 8-21.2 17.8-28.5 8.4-6.2 17.5-9.1 27.4-8.5-8.8 4.4-15.6 11.4-20.3 21z"/>
    <path d="M80.5 35.4c6.3-.6 11.3.9 15.2 4.6-5.6-.4-10.3 1-14.2 4.1z"/>
    <path d="M55.2 83.2c-3.6 5.7-4.7 11.6-3.3 17.8l-7.3-1.9c-.4-6 1.1-11.8 4.4-17.4zM73.8 81.3c-.6 7.5 1.4 13.8 5.9 18.9l-7.8 1.1c-4.3-5.1-6.2-11.5-5.8-19.3z"/>
    <path d="M32.4 82.1c7.4 10 16.7 17.1 27.9 21.2-14 .2-26-4.6-36.2-14.5z"/>
    <path d="M61.7 37.8c-3.3-5.6-6.9-9.5-10.8-11.6 6.8.5 12 3 15.7 7.4z"/>
    <circle cx="84" cy="52" r="2.2"/>
    <circle cx="29" cy="32" r="2"/>
    <circle cx="103" cy="92" r="2"/>
  </g>
</svg>
